<svg width="9px" height="6px" viewBox="0 0 9 6" version="1.1" xmlns="http://www.w3.org/2000/svg" fill="#000" fill-rule="nonzero"><g id="arrow-down" transform="translate(-70.000000, -216.000000)"><path d="M72.020079,219.60105 C71.7673751,219.345794 71.7673751,218.933133 72.0203292,218.677624 L75.5551005,215.11376 C75.8099225,214.856365 76.2250678,214.856365 76.4798897,215.11376 C76.7325936,215.369017 76.7325936,215.781677 76.4798897,216.036934 L73.4083854,219.139464 L76.4798897,222.241993 C76.7325936,222.49725 76.7325936,222.90991 76.4798897,223.165167 C76.3558263,223.290483 76.1923846,223.358214 76.0174951,223.358214 C75.8426764,223.358214 75.6792962,223.290538 75.5552511,223.165319 L72.020079,219.60105 Z M72.5649305,219.061147 C72.6084018,219.105057 72.6084018,219.17387 72.5651807,219.217527 L72.6426075,219.139463 L72.5649305,219.061147 Z" id="Shape-Copy-47" transform="translate(74.250000, 219.139464) scale(1, -1) rotate(90.000000) translate(-74.250000, -219.139464) "></path></g></svg>