<svg width="5px" height="9px" viewBox="0 0 5 9" version="1.1" xmlns="http://www.w3.org/2000/svg" fill="#000" fill-rule="nonzero"><g id="arrow-left" transform="translate(-38.000000, -181.000000)"><path d="M38.270079,185.85105 C38.0173751,185.595794 38.0173751,185.183133 38.2703292,184.927624 L41.8051005,181.36376 C42.0599225,181.106365 42.4750678,181.106365 42.7298897,181.36376 C42.9825936,181.619017 42.9825936,182.031677 42.7298897,182.286934 L39.6583854,185.389464 L42.7298897,188.491993 C42.9825936,188.74725 42.9825936,189.15991 42.7298897,189.415167 C42.6058263,189.540483 42.4423846,189.608214 42.2674951,189.608214 C42.0926764,189.608214 41.9292962,189.540538 41.8052511,189.415319 L38.270079,185.85105 Z M38.8149305,185.311147 C38.8584018,185.355057 38.8584018,185.42387 38.8151807,185.467527 L38.8926075,185.389463 L38.8149305,185.311147 Z" id="Shape-Copy-43"></path></g></svg>   