<svg width="6px" height="9px" viewBox="0 0 6 9" version="1.1" xmlns="http://www.w3.org/2000/svg" fill="#000" fill-rule="nonzero"><g id="arrow-right" transform="translate(-105.000000, -181.000000)"><path d="M105.770079,185.85105 C105.517375,185.595794 105.517375,185.183133 105.770329,184.927624 L109.305101,181.36376 C109.559922,181.106365 109.975068,181.106365 110.22989,181.36376 C110.482594,181.619017 110.482594,182.031677 110.22989,182.286934 L107.158385,185.389464 L110.22989,188.491993 C110.482594,188.74725 110.482594,189.15991 110.22989,189.415167 C110.105826,189.540483 109.942385,189.608214 109.767495,189.608214 C109.592676,189.608214 109.429296,189.540538 109.305251,189.415319 L105.770079,185.85105 Z M106.314931,185.311147 C106.358402,185.355057 106.358402,185.42387 106.315181,185.467527 L106.392608,185.389463 L106.314931,185.311147 Z" id="Shape-Copy-46" transform="translate(108.000000, 185.389464) scale(-1, 1) translate(-108.000000, -185.389464) "></path></g></svg>