<svg width="9px" height="6px" viewBox="0 0 9 6" version="1.1" xmlns="http://www.w3.org/2000/svg" fill="#000" fill-rule="nonzero"><g id="arrow-up" transform="translate(-70.000000, -149.000000)"><path d="M72.020079,152.10105 C71.7673751,151.845794 71.7673751,151.433133 72.0203292,151.177624 L75.5551005,147.61376 C75.8099225,147.356365 76.2250678,147.356365 76.4798897,147.61376 C76.7325936,147.869017 76.7325936,148.281677 76.4798897,148.536934 L73.4083854,151.639464 L76.4798897,154.741993 C76.7325936,154.99725 76.7325936,155.40991 76.4798897,155.665167 C76.3558263,155.790483 76.1923846,155.858214 76.0174951,155.858214 C75.8426764,155.858214 75.6792962,155.790538 75.5552511,155.665319 L72.020079,152.10105 Z M72.5649305,151.561147 C72.6084018,151.605057 72.6084018,151.67387 72.5651807,151.717527 L72.6426075,151.639463 L72.5649305,151.561147 Z" id="Shape-Copy-44" transform="translate(74.250000, 151.639464) rotate(90.000000) translate(-74.250000, -151.639464) "></path></g></svg>